<?xml version="1.0" encoding="utf-8"?>
<!-- Generator: Adobe Illustrator 23.0.5, SVG Export Plug-In . SVG Version: 6.00 Build 0)  -->
<svg version="1.1" id="Слой_1" xmlns="http://www.w3.org/2000/svg" xmlns:xlink="http://www.w3.org/1999/xlink" x="0px" y="0px"
	 viewBox="0 0 293.7 83" style="enable-background:new 0 0 293.7 83;" xml:space="preserve">
<style type="text/css">
	.st0{fill:#97CF26;}
	.st1{fill:#A169F7;}
	.st2{fill:#FF6163;}
	.st3{fill:#00AAFF;}
</style>
<g>
	<circle class="st0" cx="60.7" cy="60.5" r="22.5"/>
	<circle class="st1" cx="18.5" cy="60.5" r="10.5"/>
	<circle class="st2" cx="60.7" cy="18.4" r="14.4"/>
	<circle class="st3" cx="18.5" cy="18.4" r="18.5"/>
	<path d="M141.5,70.9h11.7l-21.6-58.8h-8.5l-21.6,58.8h11.7l4.1-11.2h20.1L141.5,70.9l-20.9-20.1l6.8-18.5l6.8,18.5h-13.6
		L141.5,70.9z M182,30.8L171.3,60l-10.7-29.2h-10.9l14.7,40.1h13.9L193,30.8L182,30.8 M197.5,30.8h10.9v40.1h-10.9V30.8z"/>
	<circle cx="203.1" cy="19.1" r="7.1"/>
	<path d="M247.1,39.6v-8.8H234V19.7h-10.9v11.1h-8.7v8.8h8.7v17.3c0,8.9,4.5,14.8,15.8,14.8c4.4,0,8.2-1.6,8.2-1.6l-1.3-8.7
		c0,0-2.2,0.6-4.8,0.6c-3.2,0-7-1.4-7-5.9V39.6L247.1,39.6 M272.3,61.7c-6.1,0-11.1-4.8-11.1-10.8c0-6,4.9-10.8,11-10.8
		c6.1,0,11.1,4.8,11.1,10.8C283.3,56.9,278.4,61.7,272.3,61.7 M272.3,29.7c-11.9,0-21.5,9.4-21.5,21c0,11.6,9.6,21,21.5,21
		c11.9,0,21.5-9.4,21.5-21C293.7,39.1,284.1,29.7,272.3,29.7"/>
</g>
</svg>
