<?xml version="1.0" encoding="UTF-8"?> 
<svg xmlns="http://www.w3.org/2000/svg" viewBox="0 0 60 60" fill="none"> 
<path d="M22.666 16.9746C23.2187 16.9746 23.666 16.5266 23.666 15.9746V13.4492C23.666 12.8972 23.2187 12.4492 22.666 12.4492C22.1133 12.4492 21.666 12.8972 21.666 13.4492V15.9746C21.666 16.5266 22.1133 16.9746 22.666 16.9746Z" fill="#E94110"></path> 
<path d="M6.97455 30.6665H4.44922C3.89655 30.6665 3.44922 31.1145 3.44922 31.6665C3.44922 32.2185 3.89655 32.6665 4.44922 32.6665H6.97455C7.52722 32.6665 7.97455 32.2185 7.97455 31.6665C7.97455 31.1145 7.52722 30.6665 6.97455 30.6665Z" fill="#E94110"></path> 
<path d="M12.4762 42.9495L10.8649 44.8935C10.5122 45.3188 10.5716 45.9488 10.9969 46.3015C11.1836 46.4555 11.4096 46.5315 11.6342 46.5315C11.9216 46.5315 12.2069 46.4082 12.4049 46.1695L14.0162 44.2255C14.3689 43.8002 14.3096 43.1702 13.8842 42.8175C13.4582 42.4655 12.8282 42.5235 12.4762 42.9495Z" fill="#E94110"></path> 
<path d="M58.0673 49.0013C58.6653 47.6047 59.0353 45.3833 59.0353 43.3787C59.0353 35.822 52.6273 28.7273 46.0767 26.3593L47.5107 20.9027C47.6947 20.094 47.3573 19.5907 46.7287 19.5907C46.5527 19.5907 46.354 19.63 46.1373 19.7133L43.468 20.7407C43.222 20.836 42.9373 20.9067 42.6327 20.954C38.9567 14.118 31.8813 9.39333 23.6633 9.03667C23.6633 9.024 23.6667 9.01267 23.6667 9V7H27.3333C28.8 7 30 5.8 30 4.33333V3.66667C30 2.2 28.8 1 27.3333 1H18C16.5333 1 15.3333 2.2 15.3333 3.66667V4.33333C15.3333 5.8 16.5333 7 18 7H21.6667V9C21.6667 9.00867 21.6687 9.01667 21.6693 9.02533C9.61267 9.54733 0 19.4827 0 31.6667C0 44.1853 10.1473 54.3333 22.6667 54.3333C22.942 54.3333 23.2147 54.3247 23.4873 54.314C24.048 56.62 26.1247 58.3333 28.6073 58.3333C30.2733 58.3333 31.7567 57.5607 32.7233 56.3573C35.334 57.6107 38.394 58.3333 41.6667 58.3333C44.9393 58.3333 47.9993 57.6107 50.61 56.3573C51.5767 57.5607 53.06 58.3333 54.7253 58.3333C57.6387 58.3333 60 55.978 60 53.07C60 51.4307 59.2473 49.9667 58.0673 49.0013ZM17.3333 4.33333V3.66667C17.3333 3.30533 17.6387 3 18 3H27.3333C27.6947 3 28 3.30533 28 3.66667V4.33333C28 4.69467 27.6947 5 27.3333 5H18C17.6387 5 17.3333 4.69467 17.3333 4.33333ZM44.1867 22.6073L45.086 22.2613L44.1427 25.8507C44.1 26.0127 44.086 26.1733 44.084 26.3333H39.2493C39.2473 26.1733 39.2333 26.0127 39.1907 25.8507L38.2473 22.2607L39.1467 22.6067C40.0473 22.954 41.0147 23.0273 41.6667 23.0273C42.3193 23.0273 43.2867 22.9547 44.1867 22.6073ZM23.394 52.316C23.1527 52.3253 22.9107 52.3333 22.6667 52.3333C11.2707 52.3333 2 43.0627 2 31.6667C2 20.2707 11.2707 11 22.6667 11C30.106 11 36.6347 14.9547 40.274 20.8687C40.1293 20.832 39.992 20.79 39.866 20.7413L37.196 19.714C36.9793 19.6307 36.7807 19.5913 36.6047 19.5913C35.976 19.5913 35.6387 20.0947 35.8227 20.9033L37.256 26.36C30.7067 28.7287 24.3 35.8227 24.298 43.378C24.2973 45.3827 24.668 47.6053 25.266 49.0007C24.2707 49.8153 23.586 50.986 23.394 52.316ZM54.7253 56.3333C53.728 56.3333 52.796 55.8853 52.1693 55.1047C51.7793 54.6193 51.2007 54.3573 50.6093 54.3573C50.3173 54.3573 50.0213 54.4213 49.7447 54.5547C47.32 55.718 44.5267 56.3333 41.6667 56.3333C38.8067 56.3333 36.0133 55.718 33.5887 54.5547C33.3113 54.4213 33.016 54.3573 32.724 54.3573C32.1327 54.3573 31.554 54.62 31.164 55.1047C30.5367 55.8853 29.6047 56.3333 28.6073 56.3333C26.802 56.3333 25.3333 54.87 25.3333 53.07C25.3333 52.0907 25.7707 51.1713 26.5333 50.5473C27.2227 49.9827 27.456 49.0313 27.1047 48.212C26.622 47.086 26.2987 45.1427 26.2987 43.378C26.3 36.7187 32.1773 30.4447 37.708 28.3333H45.6253C51.158 30.4453 57.0353 36.7187 57.0353 43.3787C57.0353 45.1447 56.7113 47.088 56.2293 48.2133C55.8787 49.0327 56.1113 49.9847 56.8007 50.5493C57.5633 51.1727 58 52.092 58 53.07C58 54.87 56.5313 56.3333 54.7253 56.3333Z" fill="#E94110"></path> <path d="M41.8834 41.829V47.6264C41.8834 47.8664 41.7918 48.0973 41.6273 48.272C41.0427 48.8927 40 48.4791 40 47.6264V37C40 36.4477 40.4477 36 41 36H43.5659C44.2523 36 44.855 36.1236 45.374 36.3709C45.8972 36.6181 46.299 36.9705 46.5794 37.4279C46.8598 37.8812 47 38.3984 47 38.9794C47 39.8613 46.6924 40.5577 46.0771 41.0687C45.4661 41.5756 44.6185 41.829 43.5345 41.829H41.8834ZM41.8834 40.3269H43.5659C44.064 40.3269 44.4427 40.2115 44.7022 39.9808C44.9659 39.75 45.0978 39.4203 45.0978 38.9918C45.0978 38.5508 44.9659 38.1944 44.7022 37.9224C44.4386 37.6504 44.0744 37.5103 43.6099 37.5021H41.8834V40.3269Z" fill="#E94110"></path> 
<rect x="38" y="44" width="6" height="2" rx="1" fill="#E94110"></rect> 
<path d="M26.3335 31.6668C26.3335 29.6455 24.6888 28.0002 22.6668 28.0002C22.0182 28.0002 21.4102 28.1708 20.8808 28.4675L10.4922 18.0782C10.1022 17.6875 9.46882 17.6875 9.07816 18.0782C8.68749 18.4688 8.68749 19.1015 9.07816 19.4922L19.4668 29.8815C19.1708 30.4102 19.0002 31.0182 19.0002 31.6668C19.0002 33.6882 20.6448 35.3335 22.6668 35.3335C24.6888 35.3335 26.3335 33.6882 26.3335 31.6668ZM22.6668 33.3335C21.7482 33.3335 21.0002 32.5862 21.0002 31.6668C21.0002 30.7475 21.7482 30.0002 22.6668 30.0002C23.5855 30.0002 24.3335 30.7475 24.3335 31.6668C24.3335 32.5862 23.5855 33.3335 22.6668 33.3335Z" fill="#E94110"></path> 
</svg> 