<?xml version="1.0" encoding="UTF-8"?> 
<svg xmlns="http://www.w3.org/2000/svg" viewBox="0 0 60 60" fill="none"> 
<path d="M41.5821 52.3449H53.2759C54.2636 52.3452 55.2111 51.9529 55.9095 51.2545C56.608 50.556 57.0003 49.6086 57 48.6208V11.3794C57.0003 10.3916 56.608 9.44422 55.9095 8.74575C55.2111 8.04728 54.2636 7.655 53.2759 7.65527H48.6207C48.6207 9.71206 46.9533 11.3794 44.8966 11.3794C42.8398 11.3794 41.1724 9.71206 41.1724 7.65527H18.8276C18.8276 9.71206 17.1602 11.3794 15.1034 11.3794C13.0467 11.3794 11.3793 9.71206 11.3793 7.65527H6.72414C5.73635 7.655 4.78895 8.04728 4.09047 8.74575C3.392 9.44422 2.99973 10.3916 3 11.3794V48.6208C2.99973 49.6086 3.392 50.556 4.09047 51.2545C4.78895 51.9529 5.73635 52.3452 6.72414 52.3449H18.4179" stroke="#E94110" stroke-width="2" stroke-linecap="round" stroke-linejoin="round"></path> <path d="M15.1035 3V7.65517" stroke="#E94110" stroke-width="2" stroke-linecap="round" stroke-linejoin="round"></path> <path d="M44.8965 3V7.65517" stroke="#E94110" stroke-width="2" stroke-linecap="round" stroke-linejoin="round"></path> <path d="M3 19.7588H46.7586" stroke="#E94110" stroke-width="2" stroke-linecap="round" stroke-linejoin="round"></path> <path d="M52.3457 19.7588H57.0009" stroke="#E94110" stroke-width="2" stroke-linecap="round" stroke-linejoin="round"></path> <path d="M30.0008 56.9997C39.2563 56.9997 46.7594 49.4966 46.7594 40.241C46.7594 30.9855 39.2563 23.4824 30.0008 23.4824C20.7453 23.4824 13.2422 30.9855 13.2422 40.241C13.2422 49.4966 20.7453 56.9997 30.0008 56.9997Z" stroke="#E94110" stroke-width="2" stroke-linecap="round" stroke-linejoin="round"></path> <path d="M30 28.1377V40.2411L34.6552 44.8963" stroke="#E94110" stroke-width="2" stroke-linecap="round" stroke-linejoin="round"></path> </svg> 