<?xml version="1.0" encoding="UTF-8"?> 
<svg xmlns="http://www.w3.org/2000/svg" viewBox="0 0 60 60" fill="none"> <path d="M41 48.97V57.9549H2V48.97C2 46.2217 4.03226 44.002 6.54839 44.002H36.5484C38.9677 44.1077 41 46.3274 41 48.97Z" stroke="#E94110" stroke-width="2" stroke-miterlimit="10" stroke-linecap="round" stroke-linejoin="round"></path> <path d="M36.5919 16.2013L25.8027 5.41211L12.3322 18.8826L23.1214 29.6718L36.5919 16.2013Z" stroke="#E94110" stroke-width="2" stroke-miterlimit="10" stroke-linecap="round" stroke-linejoin="round"></path> <path d="M20.0577 32.5845L9.4942 21.9307C8.68162 21.1181 8.68162 19.8541 9.4942 19.0416C10.3068 18.229 11.5708 18.229 12.3834 19.0416L23.0371 29.6953C23.8497 30.5079 23.8497 31.7719 23.0371 32.5845C22.2246 33.3971 20.8703 33.3971 20.0577 32.5845Z" stroke="#E94110" stroke-width="2" stroke-miterlimit="10" stroke-linecap="round" stroke-linejoin="round"></path> <path d="M36.4913 16.1524L25.9278 5.49859C25.1152 4.68601 25.1152 3.42201 25.9278 2.60943C26.7404 1.79686 28.0044 1.79686 28.817 2.60943L39.4707 13.1729C40.2833 13.9855 40.2833 15.2495 39.4707 16.0621C38.6581 16.9649 37.3039 16.9649 36.4913 16.1524Z" stroke="#E94110" stroke-width="2" stroke-miterlimit="10" stroke-linecap="round" stroke-linejoin="round"></path> <path d="M57.2562 46.6692L31.7052 21.1182L28.0938 24.7296L53.6447 50.2806C54.6379 51.2738 56.263 51.2738 57.2562 50.2806C58.2493 49.3777 58.2493 47.6623 57.2562 46.6692Z" stroke="#E94110" stroke-width="2" stroke-miterlimit="10" stroke-linecap="round" stroke-linejoin="round"></path> </svg> 