<?xml version="1.0" standalone="no"?>
<!DOCTYPE svg PUBLIC "-//W3C//DTD SVG 20010904//EN"
 "http://www.w3.org/TR/2001/REC-SVG-20010904/DTD/svg10.dtd">
<svg version="1.0" xmlns="http://www.w3.org/2000/svg"
 width="150.000000pt" height="150.000000pt" viewBox="0 0 150.000000 150.000000"
 preserveAspectRatio="xMidYMid meet">
<metadata>
Created by potrace 1.11, written by Peter Selinger 2001-2013
</metadata>
<g transform="translate(0.000000,150.000000) scale(0.100000,-0.100000)"
fill="#000000" stroke="none">
<path d="M575 1400 c-93 -55 -238 -139 -322 -187 -143 -83 -152 -90 -155 -121
-2 -18 0 -36 4 -38 5 -3 6 -9 3 -14 -8 -12 -8 -458 0 -470 3 -5 2 -11 -2 -13
-5 -3 -7 -45 -5 -94 l3 -88 324 -188 324 -187 128 73 c70 41 173 100 228 132
236 137 268 155 275 155 14 0 26 54 20 90 -3 19 -3 42 1 51 4 8 4 21 0 28 -5
7 -5 27 -1 45 4 17 4 40 0 51 -4 11 -5 24 -2 29 3 6 4 39 3 75 -1 36 -2 72 -2
79 1 16 1 39 0 55 0 6 0 28 0 47 1 42 1 54 1 144 0 38 -1 70 -2 71 -5 5 -522
302 -573 330 -27 15 -54 31 -59 36 -6 5 -12 9 -15 8 -4 0 -82 -45 -176 -99z"/>
</g>
</svg>
