<svg viewBox="0 0 112 35" fill="none" xmlns="http://www.w3.org/2000/svg">
	<path d="M15 28H2.87001C1.28001 28 0 26.6713 0 25.0282V9.99296C0 8.79615 0.600012 7.69061 1.59001 7.07192L12.07 0.418378C12.96 -0.139459 14.09 -0.139459 14.98 0.418378L25.42 7.24426C26.4 7.86295 27 8.96848 27 10.1552V15L15 28ZM6 22H16.09L21 16V11.5L13.5 6.5L6 11.5V22Z" fill="url(#paint0_linear)"></path>
	<path d="M15 28H2.87001C1.28001 28 0 26.6713 0 25.0282V9.99296C0 8.79615 0.600012 7.69061 1.59001 7.07192L12.07 0.418378C12.96 -0.139459 14.09 -0.139459 14.98 0.418378L25.42 7.24426C26.4 7.86295 27 8.96848 27 10.1552V15L15 28ZM6 22H16.09L21 16V11.5L13.5 6.5L6 11.5V22Z" fill="url(#paint1_linear)"></path>
	<path d="M15 28V18C15 16.3034 16.31 15 17.93 15H27L15 28Z" fill="#FBBC33"></path>
	<path d="M31.28 16.17H32.72C33.28 15.5 33.98 13.96 34.21 9.12L34.24 6.51001H42.3V16.17H44.12V20.3H41.91V18.5H33.48V20.3H31.27V16.17H31.28ZM35.31 16.17H39.96V8.64001L36.54 8.68005L36.45 10.88C36.2 14.24 35.79 15.59 35.31 16.17Z" fill="#004C60"></path>
	<path d="M49.9599 9.17004C52.8699 9.17004 54.7399 11.14 54.7399 13.77C54.7399 16.4 52.8699 18.37 49.9599 18.37C47.0499 18.37 45.1799 16.4 45.1799 13.77C45.1799 11.14 47.0499 9.17004 49.9599 9.17004ZM49.9599 16.29C51.3499 16.29 52.3599 15.3 52.3599 13.77C52.3599 12.29 51.3299 11.27 49.9599 11.27C48.6299 11.27 47.5799 12.25 47.5799 13.77C47.5799 15.24 48.5899 16.29 49.9599 16.29Z" fill="#004C60"></path>
	<path d="M56.5 9.39001H58.53L61.52 12.5699L64.35 9.39001H66.32V18.17H64.08V12.8101L61.48 15.6H61.42L58.75 12.8101V18.17H56.51V9.39001H56.5Z" fill="#004C60"></path>
	<path d="M102.23 9.39001H104.47V18.17H102.23V9.39001ZM106.69 13.5601L110.96 18.16H108.03L103.6 13.73L107.8 9.38H110.63L106.69 13.5601Z" fill="#004C60"></path>
	<path d="M86.0199 11.63H83.7599L83.7199 12.58C83.6099 17.58 82.0999 18.46 79.6699 18.22V16.05C80.9699 16.14 81.4999 15.51 81.5599 12.14L81.5999 9.39001H88.2599V18.17H86.0199V11.63Z" fill="#004C60"></path>
	<path d="M90.97 18.16V9.38H93.21V14.9399L97.31 9.38H99.56V18.16H97.31V12.6L93.21 18.16H90.97Z" fill="#004C60"></path>
	<path d="M68.8401 6.76001H71.2601V11.1899L75.5001 6.76001H78.4001L73.3201 12.02L78.7101 18.16H75.6401L71.2601 13.28V18.16H68.8401V6.76001Z" fill="#004C60"></path>
	<path d="M101.862 26.6251L103.537 25.4205H97.9385V32.6422H103.537V31.4376H99.5372V29.588H102.945V28.3891H99.5372V26.6251H101.862Z" fill="#21A038"></path>
	<path d="M93.7165 28.235H91.7723V26.6251H94.876L96.5508 25.4205H90.1794V32.6365H93.5115C95.3854 32.6365 96.4512 31.8087 96.4512 30.3644C96.4512 28.9943 95.4791 28.235 93.7165 28.235ZM93.4354 31.4376H91.7723V29.4396H93.4354C94.4485 29.4396 94.9228 29.7764 94.9228 30.4386C94.9228 31.118 94.4192 31.4376 93.4354 31.4376Z" fill="#21A038"></path>
	<path d="M108.07 25.4205H105.024V32.6422H106.623V30.5984H108.07C110.014 30.5984 111.22 29.5994 111.22 28.0066C111.226 26.4139 110.014 25.4205 108.07 25.4205ZM108.04 29.3939H106.623V26.6251H108.04C109.065 26.6251 109.627 27.1161 109.627 28.0066C109.627 28.9029 109.059 29.3939 108.04 29.3939Z" fill="#21A038"></path>
	<path d="M87.4329 31.078C87.023 31.3006 86.5486 31.4148 86.0509 31.4148C84.6103 31.4148 83.568 30.4101 83.568 29.0342C83.568 27.6527 84.6103 26.6536 86.0509 26.6536C86.5955 26.6536 87.0874 26.8021 87.5032 27.0932L88.6451 26.2711L88.569 26.2026C87.9014 25.626 87.0054 25.3292 85.9806 25.3292C84.8738 25.3292 83.8666 25.6946 83.1463 26.3568C82.4202 27.0247 82.022 27.961 82.022 28.9943C82.022 30.0333 82.4202 30.9809 83.1405 31.6717C83.8607 32.3625 84.868 32.7393 85.9689 32.7393C87.1225 32.7393 88.1239 32.3454 88.8091 31.6318C88.282 31.255 87.7726 30.8896 87.7726 30.8896L87.4329 31.078Z" fill="#21A038"></path>
	<path d="M66 29C66 32.3168 68.7582 35 72.1605 35C75.5628 35 78.3151 32.3168 78.3151 29C78.3151 28.6346 78.28 28.2693 78.2156 27.9267L76.8921 28.8801C76.8921 28.9201 76.8921 28.96 76.8921 29C76.8921 31.5461 74.7664 33.6128 72.1546 33.6128C69.5429 33.6128 67.4171 31.5404 67.4171 29C67.4171 26.4596 69.5429 24.3873 72.1546 24.3873C73.1443 24.3873 74.0637 24.6841 74.825 25.1922L76.0196 24.3302C74.9597 23.5024 73.6186 23 72.1488 23C68.7582 22.9943 66 25.6832 66 29Z" fill="#21A038"></path>
	<path d="M77.0268 25.3292C77.3196 25.7003 77.5656 26.0942 77.7647 26.5223L72.1547 30.5528L69.8123 29.1199V27.3958L72.1547 28.8287L77.0268 25.3292Z" fill="#21A038"></path>
	<defs>
	<linearGradient id="paint0_linear" x1="0.602214" y1="5.49917" x2="19.5747" y2="23.4373" gradientUnits="userSpaceOnUse">
	<stop stop-color="#6BBD3F"></stop>
	<stop offset="0.619792" stop-color="#209A73"></stop>
	<stop offset="1" stop-color="#0276A2"></stop>
	</linearGradient>
	<linearGradient id="paint1_linear" x1="0.602213" y1="5.49917" x2="21.4127" y2="24.3996" gradientUnits="userSpaceOnUse">
	<stop stop-color="#6BBD3F"></stop>
	<stop offset="0.619792" stop-color="#209A73"></stop>
	<stop offset="1" stop-color="#0276A2"></stop>
	</linearGradient>
	</defs>
</svg>